<?xml version="1.0" standalone="no"?>
<?xml-stylesheet href="light.css" type="text/css"?>
<!DOCTYPE svg PUBLIC "-//W3C//DTD SVG 1.1//EN" "http://www.w3.org/Graphics/SVG/1.1/DTD/svg11.dtd">
<svg xmlns="http://www.w3.org/2000/svg" class="railroad-diagram" width="590" height="246" viewBox="0 0 590 246"><g transform="translate(.5 .5)"><path d="M 20 21 v 20 m 0 -10 h 20.5"></path><g><path d="M40 31h0"></path><path d="M550 31h0"></path><path d="M40 31h20"></path><g><path d="M60 31h0"></path><path d="M530 31h0"></path><g><path d="M60 31h0"></path><path d="M202 31h0"></path><path d="M60 31h20"></path><g><path d="M80 31h24"></path><path d="M158 31h24"></path><g class="non-terminal"><path d="M104 31h0"></path><path d="M158 31h0"></path><rect x="104" y="20" width="54" height="22" rx="8" ry="8"></rect><text x="131" y="35">dec</text></g></g><path d="M182 31h20"></path><path d="M60 31a10 10 0 0 1 10 10v26a10 10 0 0 0 10 10"></path><g><path d="M80 77h28"></path><path d="M154 77h28"></path><g class="terminal"><path d="M108 77h0"></path><path d="M154 77h0"></path><rect x="108" y="66" width="46" height="22" rx="0" ry="0"></rect><text x="131" y="81">ID</text></g></g><path d="M182 77a10 10 0 0 0 10 -10v-26a10 10 0 0 1 10 -10"></path><path d="M60 31a10 10 0 0 1 10 10v72a10 10 0 0 0 10 10"></path><g><path d="M80 123h0"></path><path d="M182 123h0"></path><g class="non-terminal"><path d="M80 123h0"></path><path d="M182 123h0"></path><rect x="80" y="112" width="102" height="22" rx="8" ry="8"></rect><text x="131" y="127">list_type</text></g></g><path d="M182 123a10 10 0 0 0 10 -10v-72a10 10 0 0 1 10 -10"></path></g><path d="M202 31h10"></path><g class="terminal"><path d="M212 31h0"></path><path d="M282 31h0"></path><rect x="212" y="20" width="70" height="22" rx="0" ry="0"></rect><text x="247" y="35">EQUAL</text></g><path d="M282 31h10"></path><g><path d="M292 31h0"></path><path d="M434 31h0"></path><path d="M292 31h20"></path><g><path d="M312 31h20"></path><path d="M394 31h20"></path><g class="non-terminal"><path d="M332 31h0"></path><path d="M394 31h0"></path><rect x="332" y="20" width="62" height="22" rx="8" ry="8"></rect><text x="363" y="35">expr</text></g></g><path d="M414 31h20"></path><path d="M292 31a10 10 0 0 1 10 10v26a10 10 0 0 0 10 10"></path><g><path d="M312 77h12"></path><path d="M402 77h12"></path><g class="terminal"><path d="M324 77h0"></path><path d="M402 77h0"></path><rect x="324" y="66" width="78" height="22" rx="0" ry="0"></rect><text x="363" y="81">STRING</text></g></g><path d="M414 77a10 10 0 0 0 10 -10v-26a10 10 0 0 1 10 -10"></path><path d="M292 31a10 10 0 0 1 10 10v72a10 10 0 0 0 10 10"></path><g><path d="M312 123h0"></path><path d="M414 123h0"></path><g class="non-terminal"><path d="M312 123h0"></path><path d="M414 123h0"></path><rect x="312" y="112" width="102" height="22" rx="8" ry="8"></rect><text x="363" y="127">expr_bool</text></g></g><path d="M414 123a10 10 0 0 0 10 -10v-72a10 10 0 0 1 10 -10"></path><path d="M292 31a10 10 0 0 1 10 10v118a10 10 0 0 0 10 10"></path><g><path d="M312 169h28"></path><path d="M386 169h28"></path><g class="terminal"><path d="M340 169h0"></path><path d="M386 169h0"></path><rect x="340" y="158" width="46" height="22" rx="0" ry="0"></rect><text x="363" y="173">ID</text></g></g><path d="M414 169a10 10 0 0 0 10 -10v-118a10 10 0 0 1 10 -10"></path><path d="M292 31a10 10 0 0 1 10 10v164a10 10 0 0 0 10 10"></path><g><path d="M312 215h0"></path><path d="M414 215h0"></path><g class="non-terminal"><path d="M312 215h0"></path><path d="M414 215h0"></path><rect x="312" y="204" width="102" height="22" rx="8" ry="8"></rect><text x="363" y="219">func_call</text></g></g><path d="M414 215a10 10 0 0 0 10 -10v-164a10 10 0 0 1 10 -10"></path></g><path d="M434 31h10"></path><g class="terminal"><path d="M444 31h0"></path><path d="M530 31h0"></path><rect x="444" y="20" width="86" height="22" rx="0" ry="0"></rect><text x="487" y="35">ENDLINE</text></g></g><path d="M530 31h20"></path></g><path d="M 550 31 h 20 m 0 -10 v 20"></path></g></svg>