<?xml version="1.0" standalone="no"?>
<?xml-stylesheet href="light.css" type="text/css"?>
<!DOCTYPE svg PUBLIC "-//W3C//DTD SVG 1.1//EN" "http://www.w3.org/Graphics/SVG/1.1/DTD/svg11.dtd">
<svg xmlns="http://www.w3.org/2000/svg" version="1.1" viewBox="0 0 1000 1000"><g transform="translate(16.2769761854604,423.54938397544345) scale(0.9896309330796713)"><path class="tree-link" d="M190,11.5C85.5,11.5 85.5,11.5 85.5,11.5" style="stroke-opacity: 1;"></path><path class="tree-link" d="M380,-225.5C275.5,-225.5 275.5,11.5 275.5,11.5" style="stroke-opacity: 1;"></path><path class="tree-link" d="M380,-165.5C275.5,-165.5 275.5,11.5 275.5,11.5" style="stroke-opacity: 1;"></path><path class="tree-link" d="M380,-105.50000000000001C275.5,-105.50000000000001 275.5,11.5 275.5,11.5" style="stroke-opacity: 1;"></path><path class="tree-link" d="M380,188.5C275.5,188.5 275.5,11.5 275.5,11.5" style="stroke-opacity: 1;"></path><path class="tree-link" d="M380,248.5C275.5,248.5 275.5,11.5 275.5,11.5" style="stroke-opacity: 1;"></path><path class="tree-link" d="M570,-195.5C465.5,-195.5 465.5,-105.50000000000001 465.5,-105.50000000000001" style="stroke-opacity: 1;"></path><path class="tree-link" d="M570,-135.5C465.5,-135.5 465.5,-105.50000000000001 465.5,-105.50000000000001" style="stroke-opacity: 1;"></path><path class="tree-link" d="M570,-75.50000000000001C465.5,-75.50000000000001 465.5,-105.50000000000001 465.5,-105.50000000000001" style="stroke-opacity: 1;"></path><path class="tree-link" d="M570,-15.50000000000001C465.5,-15.50000000000001 465.5,-105.50000000000001 465.5,-105.50000000000001" style="stroke-opacity: 1;"></path><path class="tree-link" d="M570,68.50000000000001C465.5,68.50000000000001 465.5,188.5 465.5,188.5" style="stroke-opacity: 1;"></path><path class="tree-link" d="M570,128.5C465.5,128.5 465.5,188.5 465.5,188.5" style="stroke-opacity: 1;"></path><path class="tree-link" d="M570,188.5C465.5,188.5 465.5,188.5 465.5,188.5" style="stroke-opacity: 1;"></path><path class="tree-link" d="M570,248.5C465.5,248.5 465.5,188.5 465.5,188.5" style="stroke-opacity: 1;"></path><path class="tree-link" d="M570,308.5C465.5,308.5 465.5,188.5 465.5,188.5" style="stroke-opacity: 1;"></path><path class="tree-link" d="M760,-75.50000000000001C655.5,-75.50000000000001 655.5,-75.50000000000001 655.5,-75.50000000000001" style="stroke-opacity: 1;"></path><g class="tree-node tree-root" transform="translate(0,0)" style="opacity: 1;"><rect width="171" height="23" rx="0" ry="0"></rect><text class="node-text" y="11.5" dy=".35em" x="69.48833084106445">prog</text><text class="token-range" x="0" y="11.5" dx="0" dy="-1.8em">⨳ 0-11</text><text class="token-value" x="0" y="11.5" dy="0.25em" dx="191"></text></g><g class="tree-node" transform="translate(190,0)" style="opacity: 1;"><rect width="171" height="23" rx="0" ry="0"></rect><text class="node-text" y="11.5" dy=".35em" x="68.16018486022949">main</text><text class="token-range" x="0" y="11.5" dx="0" dy="-1.8em">⨳ 0-11</text><text class="token-value" x="0" y="11.5" dy="0.25em" dx="191"></text></g><g class="tree-node tree-leaf" transform="translate(380,-237)" style="opacity: 1;"><rect width="171" height="23" rx="10" ry="10"></rect><text class="node-text" y="11.5" dy=".35em" x="67.26567459106445">T__1</text><text class="token-range" x="0" y="11.5" dx="0" dy="-1.8em">⨳ 0</text><text class="token-value" x="0" y="11.5" dy="0.25em" dx="191">nada principal()</text></g><g class="tree-node tree-leaf" transform="translate(380,-177)" style="opacity: 1;"><rect width="171" height="23" rx="10" ry="10"></rect><text class="node-text" y="11.5" dy=".35em" x="65.04300117492676">LKEY</text><text class="token-range" x="0" y="11.5" dx="0" dy="-1.8em">⨳ 1</text><text class="token-value" x="0" y="11.5" dy="0.25em" dx="191">{</text></g><g class="tree-node" transform="translate(380,-117.00000000000001)" style="opacity: 1;"><rect width="171" height="23" rx="0" ry="0"></rect><text class="node-text" y="11.5" dy=".35em" x="76.60551166534424">att</text><text class="token-range" x="0" y="11.5" dx="0" dy="-1.8em">⨳ 2-5</text><text class="token-value" x="0" y="11.5" dy="0.25em" dx="191"></text></g><g class="tree-node" transform="translate(380,177)" style="opacity: 1;"><rect width="171" height="23" rx="0" ry="0"></rect><text class="node-text" y="11.5" dy=".35em" x="70.37894821166992">func</text><text class="token-range" x="0" y="11.5" dx="0" dy="-1.8em">⨳ 6-10</text><text class="token-value" x="0" y="11.5" dy="0.25em" dx="191"></text></g><g class="tree-node tree-leaf" transform="translate(380,237)" style="opacity: 1;"><rect width="171" height="23" rx="10" ry="10"></rect><text class="node-text" y="11.5" dy=".35em" x="63.71487045288086">RKEY</text><text class="token-range" x="0" y="11.5" dx="0" dy="-1.8em">⨳ 11</text><text class="token-value" x="0" y="11.5" dy="0.25em" dx="191">}</text></g><g class="tree-node tree-leaf" transform="translate(570,-207)" style="opacity: 1;"><rect width="171" height="23" rx="10" ry="10"></rect><text class="node-text" y="11.5" dy=".35em" x="77.50002098083496">ID</text><text class="token-range" x="0" y="11.5" dx="0" dy="-1.8em">⨳ 2</text><text class="token-value" x="0" y="11.5" dy="0.25em" dx="191">a</text></g><g class="tree-node tree-leaf" transform="translate(570,-147)" style="opacity: 1;"><rect width="171" height="23" rx="10" ry="10"></rect><text class="node-text" y="11.5" dy=".35em" x="58.37894058227539">EQUAL</text><text class="token-range" x="0" y="11.5" dx="0" dy="-1.8em">⨳ 3</text><text class="token-value" x="0" y="11.5" dy="0.25em" dx="191"> igual </text></g><g class="tree-node" transform="translate(570,-87.00000000000001)" style="opacity: 1;"><rect width="171" height="23" rx="0" ry="0"></rect><text class="node-text" y="11.5" dy=".35em" x="69.9375410079956">expr</text><text class="token-range" x="0" y="11.5" dx="0" dy="-1.8em">⨳ 4</text><text class="token-value" x="0" y="11.5" dy="0.25em" dx="191"></text></g><g class="tree-node tree-leaf" transform="translate(570,-27.00000000000001)" style="opacity: 1;"><rect width="171" height="23" rx="10" ry="10"></rect><text class="node-text" y="11.5" dy=".35em" x="50.824275970458984">ENDLINE</text><text class="token-range" x="0" y="11.5" dx="0" dy="-1.8em">⨳ 5</text><text class="token-value" x="0" y="11.5" dy="0.25em" dx="191">ç</text></g><g class="tree-node tree-leaf" transform="translate(570,57.000000000000014)" style="opacity: 1;"><rect width="171" height="23" rx="10" ry="10"></rect><text class="node-text" y="11.5" dy=".35em" x="67.26567459106445">T__2</text><text class="token-range" x="0" y="11.5" dx="0" dy="-1.8em">⨳ 6</text><text class="token-value" x="0" y="11.5" dy="0.25em" dx="191">amostrar</text></g><g class="tree-node tree-leaf" transform="translate(570,117.00000000000001)" style="opacity: 1;"><rect width="171" height="23" rx="10" ry="10"></rect><text class="node-text" y="11.5" dy=".35em" x="54.08208084106445">LPAREN</text><text class="token-range" x="0" y="11.5" dx="0" dy="-1.8em">⨳ 7</text><text class="token-value" x="0" y="11.5" dy="0.25em" dx="191">(</text></g><g class="tree-node tree-leaf" transform="translate(570,177)" style="opacity: 1;"><rect width="171" height="23" rx="10" ry="10"></rect><text class="node-text" y="11.5" dy=".35em" x="77.50002098083496">ID</text><text class="token-range" x="0" y="11.5" dx="0" dy="-1.8em">⨳ 8</text><text class="token-value" x="0" y="11.5" dy="0.25em" dx="191">a</text></g><g class="tree-node tree-leaf" transform="translate(570,237)" style="opacity: 1;"><rect width="171" height="23" rx="10" ry="10"></rect><text class="node-text" y="11.5" dy=".35em" x="52.75394821166992">RPAREN</text><text class="token-range" x="0" y="11.5" dx="0" dy="-1.8em">⨳ 9</text><text class="token-value" x="0" y="11.5" dy="0.25em" dx="191">)</text></g><g class="tree-node tree-leaf" transform="translate(570,297)" style="opacity: 1;"><rect width="171" height="23" rx="10" ry="10"></rect><text class="node-text" y="11.5" dy=".35em" x="50.824275970458984">ENDLINE</text><text class="token-range" x="0" y="11.5" dx="0" dy="-1.8em">⨳ 10</text><text class="token-value" x="0" y="11.5" dy="0.25em" dx="191">ç</text></g><g class="tree-node tree-leaf" transform="translate(760,-87.00000000000001)" style="opacity: 1;"><rect width="171" height="23" rx="10" ry="10"></rect><text class="node-text" y="11.5" dy=".35em" x="72.61331558227539">INT</text><text class="token-range" x="0" y="11.5" dx="0" dy="-1.8em">⨳ 4</text><text class="token-value" x="0" y="11.5" dy="0.25em" dx="191">10</text></g></g></svg>