<?xml version="1.0" standalone="no"?>
<?xml-stylesheet href="light.css" type="text/css"?>
<!DOCTYPE svg PUBLIC "-//W3C//DTD SVG 1.1//EN" "http://www.w3.org/Graphics/SVG/1.1/DTD/svg11.dtd">
<svg xmlns="http://www.w3.org/2000/svg" class="railroad-diagram" width="428" height="340" viewBox="0 0 428 340"><g transform="translate(.5 .5)"><path d="M 20 45 v 20 m 0 -10 h 20.5"></path><g><path d="M40 55h0"></path><path d="M388 55h0"></path><path d="M40 55h20"></path><g><path d="M60 55h0"></path><path d="M368 55h0"></path><g><path d="M60 55h0"></path><path d="M368 55h0"></path><path d="M60 55a10 10 0 0 0 10 -10v-15a10 10 0 0 1 10 -10"></path><g><path d="M80 20h268"></path></g><path d="M348 20a10 10 0 0 1 10 10v15a10 10 0 0 0 10 10"></path><path d="M60 55h20"></path><g><path d="M80 55h0"></path><path d="M348 55h0"></path><path d="M80 55h10"></path><g><path d="M90 55h0"></path><path d="M338 55h0"></path><path d="M90 55h20"></path><g><path d="M110 55h73"></path><path d="M245 55h73"></path><g class="non-terminal"><path d="M183 55h0"></path><path d="M245 55h0"></path><rect x="183" y="44" width="62" height="22" rx="8" ry="8"></rect><text x="214" y="59">func</text></g></g><path d="M318 55h20"></path><path d="M90 55a10 10 0 0 1 10 10v26a10 10 0 0 0 10 10"></path><g><path d="M110 101h77"></path><path d="M241 101h77"></path><g class="non-terminal"><path d="M187 101h0"></path><path d="M241 101h0"></path><rect x="187" y="90" width="54" height="22" rx="8" ry="8"></rect><text x="214" y="105">att</text></g></g><path d="M318 101a10 10 0 0 0 10 -10v-26a10 10 0 0 1 10 -10"></path><path d="M90 55a10 10 0 0 1 10 10v72a10 10 0 0 0 10 10"></path><g><path d="M110 147h77"></path><path d="M241 147h77"></path><g class="non-terminal"><path d="M187 147h0"></path><path d="M241 147h0"></path><rect x="187" y="136" width="54" height="22" rx="8" ry="8"></rect><text x="214" y="151">dec</text></g></g><path d="M318 147a10 10 0 0 0 10 -10v-72a10 10 0 0 1 10 -10"></path><path d="M90 55a10 10 0 0 1 10 10v118a10 10 0 0 0 10 10"></path><g><path d="M110 193h61"></path><path d="M257 193h61"></path><g class="non-terminal"><path d="M171 193h0"></path><path d="M257 193h0"></path><rect x="171" y="182" width="86" height="22" rx="8" ry="8"></rect><text x="214" y="197">boolean</text></g></g><path d="M318 193a10 10 0 0 0 10 -10v-118a10 10 0 0 1 10 -10"></path><path d="M90 55a10 10 0 0 1 10 10v164a10 10 0 0 0 10 10"></path><g><path d="M110 239h0"></path><path d="M318 239h0"></path><g class="non-terminal"><path d="M110 239h0"></path><path d="M212 239h0"></path><rect x="110" y="228" width="102" height="22" rx="8" ry="8"></rect><text x="161" y="243">func_call</text></g><path d="M212 239h10"></path><path d="M222 239h10"></path><g class="terminal"><path d="M232 239h0"></path><path d="M318 239h0"></path><rect x="232" y="228" width="86" height="22" rx="0" ry="0"></rect><text x="275" y="243">ENDLINE</text></g></g><path d="M318 239a10 10 0 0 0 10 -10v-164a10 10 0 0 1 10 -10"></path><path d="M90 55a10 10 0 0 1 10 10v210a10 10 0 0 0 10 10"></path><g><path d="M110 285h57"></path><path d="M261 285h57"></path><g class="non-terminal"><path d="M167 285h0"></path><path d="M261 285h0"></path><rect x="167" y="274" width="94" height="22" rx="8" ry="8"></rect><text x="214" y="289">func_end</text></g></g><path d="M318 285a10 10 0 0 0 10 -10v-210a10 10 0 0 1 10 -10"></path></g><path d="M338 55h10"></path><path d="M90 55a10 10 0 0 0 -10 10v245a10 10 0 0 0 10 10"></path><g><path d="M90 320h248"></path></g><path d="M338 320a10 10 0 0 0 10 -10v-245a10 10 0 0 0 -10 -10"></path></g><path d="M348 55h20"></path></g></g><path d="M368 55h20"></path></g><path d="M 388 55 h 20 m 0 -10 v 20"></path></g></svg>