<?xml version="1.0" standalone="no"?>
<?xml-stylesheet href="light.css" type="text/css"?>
<!DOCTYPE svg PUBLIC "-//W3C//DTD SVG 1.1//EN" "http://www.w3.org/Graphics/SVG/1.1/DTD/svg11.dtd">
<svg xmlns="http://www.w3.org/2000/svg" class="railroad-diagram" width="650" height="246" viewBox="0 0 650 246"><g transform="translate(.5 .5)"><path d="M 20 21 v 20 m 0 -10 h 20.5"></path><g><path d="M40 31h0"></path><path d="M610 31h0"></path><path d="M40 31h20"></path><g><path d="M60 31h0"></path><path d="M590 31h0"></path><g class="terminal"><path d="M60 31h0"></path><path d="M170 31h0"></path><rect x="60" y="20" width="110" height="22" rx="0" ry="0"></rect><text x="115" y="35">'amostrar'</text></g><path d="M170 31h10"></path><path d="M180 31h10"></path><g class="terminal"><path d="M190 31h0"></path><path d="M268 31h0"></path><rect x="190" y="20" width="78" height="22" rx="0" ry="0"></rect><text x="229" y="35">LPAREN</text></g><path d="M268 31h10"></path><g><path d="M278 31h0"></path><path d="M396 31h0"></path><path d="M278 31h20"></path><g><path d="M298 31h0"></path><path d="M376 31h0"></path><g class="terminal"><path d="M298 31h0"></path><path d="M376 31h0"></path><rect x="298" y="20" width="78" height="22" rx="0" ry="0"></rect><text x="337" y="35">STRING</text></g></g><path d="M376 31h20"></path><path d="M278 31a10 10 0 0 1 10 10v26a10 10 0 0 0 10 10"></path><g><path d="M298 77h8"></path><path d="M368 77h8"></path><g class="non-terminal"><path d="M306 77h0"></path><path d="M368 77h0"></path><rect x="306" y="66" width="62" height="22" rx="8" ry="8"></rect><text x="337" y="81">expr</text></g></g><path d="M376 77a10 10 0 0 0 10 -10v-26a10 10 0 0 1 10 -10"></path><path d="M278 31a10 10 0 0 1 10 10v72a10 10 0 0 0 10 10"></path><g><path d="M298 123h16"></path><path d="M360 123h16"></path><g class="terminal"><path d="M314 123h0"></path><path d="M360 123h0"></path><rect x="314" y="112" width="46" height="22" rx="0" ry="0"></rect><text x="337" y="127">ID</text></g></g><path d="M376 123a10 10 0 0 0 10 -10v-72a10 10 0 0 1 10 -10"></path></g><path d="M396 31h10"></path><g class="terminal"><path d="M406 31h0"></path><path d="M484 31h0"></path><rect x="406" y="20" width="78" height="22" rx="0" ry="0"></rect><text x="445" y="35">RPAREN</text></g><path d="M484 31h10"></path><path d="M494 31h10"></path><g class="terminal"><path d="M504 31h0"></path><path d="M590 31h0"></path><rect x="504" y="20" width="86" height="22" rx="0" ry="0"></rect><text x="547" y="35">ENDLINE</text></g></g><path d="M590 31h20"></path><path d="M40 31a10 10 0 0 1 10 10v118a10 10 0 0 0 10 10"></path><g><path d="M60 169h128"></path><path d="M462 169h128"></path><g class="terminal"><path d="M188 169h0"></path><path d="M234 169h0"></path><rect x="188" y="158" width="46" height="22" rx="0" ry="0"></rect><text x="211" y="173">ID</text></g><path d="M234 169h10"></path><path d="M244 169h10"></path><g class="terminal"><path d="M254 169h0"></path><path d="M356 169h0"></path><rect x="254" y="158" width="102" height="22" rx="0" ry="0"></rect><text x="305" y="173">PLUS_PLUS</text></g><path d="M356 169h10"></path><path d="M366 169h10"></path><g class="terminal"><path d="M376 169h0"></path><path d="M462 169h0"></path><rect x="376" y="158" width="86" height="22" rx="0" ry="0"></rect><text x="419" y="173">ENDLINE</text></g></g><path d="M590 169a10 10 0 0 0 10 -10v-118a10 10 0 0 1 10 -10"></path><path d="M40 31a10 10 0 0 1 10 10v164a10 10 0 0 0 10 10"></path><g><path d="M60 215h120"></path><path d="M470 215h120"></path><g class="terminal"><path d="M180 215h0"></path><path d="M226 215h0"></path><rect x="180" y="204" width="46" height="22" rx="0" ry="0"></rect><text x="203" y="219">ID</text></g><path d="M226 215h10"></path><path d="M236 215h10"></path><g class="terminal"><path d="M246 215h0"></path><path d="M364 215h0"></path><rect x="246" y="204" width="118" height="22" rx="0" ry="0"></rect><text x="305" y="219">MINUS_MINUS</text></g><path d="M364 215h10"></path><path d="M374 215h10"></path><g class="terminal"><path d="M384 215h0"></path><path d="M470 215h0"></path><rect x="384" y="204" width="86" height="22" rx="0" ry="0"></rect><text x="427" y="219">ENDLINE</text></g></g><path d="M590 215a10 10 0 0 0 10 -10v-164a10 10 0 0 1 10 -10"></path></g><path d="M 610 31 h 20 m 0 -10 v 20"></path></g></svg>