<?xml version="1.0" standalone="no"?>
<?xml-stylesheet href="light.css" type="text/css"?>
<!DOCTYPE svg PUBLIC "-//W3C//DTD SVG 1.1//EN" "http://www.w3.org/Graphics/SVG/1.1/DTD/svg11.dtd">
<svg xmlns="http://www.w3.org/2000/svg" class="railroad-diagram" width="540" height="62" viewBox="0 0 540 62"><g transform="translate(.5 .5)"><path d="M 20 21 v 20 m 0 -10 h 20.5"></path><g><path d="M40 31h0"></path><path d="M500 31h0"></path><path d="M40 31h20"></path><g><path d="M60 31h0"></path><path d="M480 31h0"></path><g class="terminal"><path d="M60 31h0"></path><path d="M234 31h0"></path><rect x="60" y="20" width="174" height="22" rx="0" ry="0"></rect><text x="147" y="35">'nada principal()'</text></g><path d="M234 31h10"></path><path d="M244 31h10"></path><g class="terminal"><path d="M254 31h0"></path><path d="M316 31h0"></path><rect x="254" y="20" width="62" height="22" rx="0" ry="0"></rect><text x="285" y="35">LKEY</text></g><path d="M316 31h10"></path><path d="M326 31h10"></path><g class="non-terminal"><path d="M336 31h0"></path><path d="M398 31h0"></path><rect x="336" y="20" width="62" height="22" rx="8" ry="8"></rect><text x="367" y="35">code</text></g><path d="M398 31h10"></path><path d="M408 31h10"></path><g class="terminal"><path d="M418 31h0"></path><path d="M480 31h0"></path><rect x="418" y="20" width="62" height="22" rx="0" ry="0"></rect><text x="449" y="35">RKEY</text></g></g><path d="M480 31h20"></path></g><path d="M 500 31 h 20 m 0 -10 v 20"></path></g></svg>